ffmpeg started on 2025-06-07 at 17:02:24
Report written to "D:\Convert\FFMetrics\reports\ssim_report-6.txt"
Log level: 32
Command line:
ffmpeg -hide_banner -nostdin -i "G:\\\xc0\xed\xe8\xec\xe5\\\xce\xed\xe3\xee\xe8\xed\xe3\xe8\\!_36_\xce\xf1\xe5\xed\xfc_2024\\DreamCast\\\xdd\xe9, \xd2\xee\xec\xe1\xee!\\\xd2\xc2-1\\[DC] Ooi! Tonbo - 01_Telegram_HEVC.mkv" -i "G:\\\xc0\xed\xe8\xec\xe5\\\xce\xed\xe3\xee\xe8\xed\xe3\xe8\\!_36_\xce\xf1\xe5\xed\xfc_2024\\DreamCast\\\xdd\xe9, \xd2\xee\xec\xe1\xee!\\\xd2\xc2-1\\[DC] Ooi! Tonbo - 01_Telegram.mp4" -lavfi "[0:v]settb=AVTB,setpts=PTS-STARTPTS,format=pix_fmts=yuv420p10,fps=24000/1001,scale=1920:1080:flags=bicubic[main];[1:v]settb=AVTB,setpts=PTS-STARTPTS,format=pix_fmts=yuv420p,fps=24000/1001,scale=1920:1080:flags=bicubic[ref];[main][ref]ssim=eof_action=endall:stats_file='D\\:/Convert/FFMetrics/logs/ssim_logfile-6.txt'" -f null -
Input #0, matroska,webm, from 'G:\Аниме\Онгоинги\!_36_Осень_2024\DreamCast\Эй, Томбо!\ТВ-1\[DC] Ooi! Tonbo - 01_Telegram_HEVC.mkv':
  Metadata:
    COMPATIBLE_BRANDS: isomiso2avc1mp41
    MAJOR_BRAND     : isom
    MINOR_VERSION   : 512
    ENCODER         : Lavf61.7.100
  Duration: 00:24:21.59, start: -0.021000, bitrate: 1351 kb/s
  Stream #0:0: Video: hevc (Main 10), yuv420p10le(tv, bt709, progressive), 1920x1080 [SAR 1:1 DAR 16:9], 23.98 fps, 23.98 tbr, 1k tbn (default)
      Metadata:
        HANDLER_NAME    : VideoHandler
        VENDOR_ID       : [0][0][0][0]
        ENCODER         : Lavc61.19.100 libx265
        BPS             : 1156377
        DURATION        : 00:24:19.708708333
        NUMBER_OF_FRAMES: 34998
        NUMBER_OF_BYTES : 210996694
        _STATISTICS_WRITING_APP: mkvpropedit v66.0.0 ('Josie') 64-bit
        _STATISTICS_WRITING_DATE_UTC: 2025-06-05 13:09:42
        _STATISTICS_TAGS: BPS DURATION NUMBER_OF_FRAMES NUMBER_OF_BYTES
  Stream #0:1: Audio: aac (LC), 48000 Hz, stereo, fltp (default)
      Metadata:
        HANDLER_NAME    : SoundHandler
        VENDOR_ID       : [0][0][0][0]
        ENCODER         : Lavc61.19.100 aac
        BPS             : 192772
        DURATION        : 00:24:21.589000000
        NUMBER_OF_FRAMES: 68513
        NUMBER_OF_BYTES : 35219249
        _STATISTICS_WRITING_APP: mkvpropedit v66.0.0 ('Josie') 64-bit
        _STATISTICS_WRITING_DATE_UTC: 2025-06-05 13:09:42
        _STATISTICS_TAGS: BPS DURATION NUMBER_OF_FRAMES NUMBER_OF_BYTES
Input #1, mov,mp4,m4a,3gp,3g2,mj2, from 'G:\Аниме\Онгоинги\!_36_Осень_2024\DreamCast\Эй, Томбо!\ТВ-1\[DC] Ooi! Tonbo - 01_Telegram.mp4':
  Metadata:
    major_brand     : isom
    minor_version   : 512
    compatible_brands: isomiso2avc1mp41
    encoder         : Lavf60.16.100
  Duration: 00:24:21.53, start: 0.000000, bitrate: 3521 kb/s
  Stream #1:0[0x1](und): Video: h264 (High) (avc1 / 0x31637661), yuv420p(tv, bt709, progressive), 1920x1080 [SAR 1:1 DAR 16:9], 3377 kb/s, 23.98 fps, 23.98 tbr, 24k tbn (default)
      Metadata:
        handler_name    : VideoHandler
        vendor_id       : [0][0][0][0]
        encoder         : Lavc60.31.102 h264_qsv
  Stream #1:1[0x2](und): Audio: aac (HE-AACv2) (mp4a / 0x6134706D), 48000 Hz, stereo, fltp, 144 kb/s (default)
      Metadata:
        handler_name    : SoundHandler
        vendor_id       : [0][0][0][0]
Stream mapping:
  Stream #0:0 (hevc) -> settb:default
  Stream #1:0 (h264) -> settb:default
  ssim:default -> Stream #0:0 (wrapped_avframe)
  Stream #0:1 -> #0:1 (aac (native) -> pcm_s16le (native))
Output #0, null, to 'pipe:':
  Metadata:
    COMPATIBLE_BRANDS: isomiso2avc1mp41
    MAJOR_BRAND     : isom
    MINOR_VERSION   : 512
    encoder         : Lavf61.7.100
  Stream #0:0: Video: wrapped_avframe, yuv420p10le(tv, bt709, progressive), 1920x1080 [SAR 1:1 DAR 16:9], q=2-31, 200 kb/s, 23.98 fps, 23.98 tbn
      Metadata:
        encoder         : Lavc61.19.100 wrapped_avframe
  Stream #0:1: Audio: pcm_s16le, 48000 Hz, stereo, s16, 1536 kb/s (default)
      Metadata:
        HANDLER_NAME    : SoundHandler
        VENDOR_ID       : [0][0][0][0]
        _STATISTICS_TAGS: BPS DURATION NUMBER_OF_FRAMES NUMBER_OF_BYTES
        BPS             : 192772
        DURATION        : 00:24:21.589000000
        NUMBER_OF_FRAMES: 68513
        NUMBER_OF_BYTES : 35219249
        _STATISTICS_WRITING_APP: mkvpropedit v66.0.0 ('Josie') 64-bit
        _STATISTICS_WRITING_DATE_UTC: 2025-06-05 13:09:42
        encoder         : Lavc61.19.100 pcm_s16le
frame=  179 fps=0.0 q=-0.0 size=N/A time=00:00:07.46 bitrate=N/A speed=14.3x    frame=  416 fps=400 q=-0.0 size=N/A time=00:00:17.35 bitrate=N/A speed=16.7x    frame=  684 fps=441 q=-0.0 size=N/A time=00:00:28.52 bitrate=N/A speed=18.4x    frame=  915 fps=444 q=-0.0 size=N/A time=00:00:38.16 bitrate=N/A speed=18.5x    frame= 1168 fps=451 q=-0.0 size=N/A time=00:00:48.71 bitrate=N/A speed=18.8x    frame= 1423 fps=459 q=-0.0 size=N/A time=00:00:59.35 bitrate=N/A speed=19.2x    frame= 1668 fps=462 q=-0.0 size=N/A time=00:01:09.56 bitrate=N/A speed=19.3x    frame= 1907 fps=461 q=-0.0 size=N/A time=00:01:19.53 bitrate=N/A speed=19.2x    frame= 2155 fps=464 q=-0.0 size=N/A time=00:01:29.88 bitrate=N/A speed=19.4x    frame= 2402 fps=465 q=-0.0 size=N/A time=00:01:40.18 bitrate=N/A speed=19.4x    frame= 2612 fps=460 q=-0.0 size=N/A time=00:01:48.94 bitrate=N/A speed=19.2x    frame= 2840 fps=458 q=-0.0 size=N/A time=00:01:58.45 bitrate=N/A speed=19.1x    frame= 3048 fps=454 q=-0.0 size=N/A time=00:02:07.12 bitrate=N/A speed=18.9x    frame= 3272 fps=453 q=-0.0 size=N/A time=00:02:16.46 bitrate=N/A speed=18.9x    frame= 3502 fps=453 q=-0.0 size=N/A time=00:02:26.06 bitrate=N/A speed=18.9x    frame= 3728 fps=451 q=-0.0 size=N/A time=00:02:35.48 bitrate=N/A speed=18.8x    frame= 3940 fps=450 q=-0.0 size=N/A time=00:02:44.33 bitrate=N/A speed=18.7x    frame= 4162 fps=448 q=-0.0 size=N/A time=00:02:53.59 bitrate=N/A speed=18.7x    frame= 4384 fps=447 q=-0.0 size=N/A time=00:03:02.84 bitrate=N/A speed=18.7x    frame= 4581 fps=444 q=-0.0 size=N/A time=00:03:11.06 bitrate=N/A speed=18.5x    frame= 4835 fps=446 q=-0.0 size=N/A time=00:03:21.65 bitrate=N/A speed=18.6x    frame= 5074 fps=447 q=-0.0 size=N/A time=00:03:31.62 bitrate=N/A speed=18.6x    frame= 5350 fps=451 q=-0.0 size=N/A time=00:03:43.13 bitrate=N/A speed=18.8x    frame= 5624 fps=454 q=-0.0 size=N/A time=00:03:54.56 bitrate=N/A speed=18.9x    frame= 5874 fps=456 q=-0.0 size=N/A time=00:04:04.99 bitrate=N/A speed=  19x    frame= 6155 fps=459 q=-0.0 size=N/A time=00:04:16.71 bitrate=N/A speed=19.1x    frame= 6415 fps=461 q=-0.0 size=N/A time=00:04:27.55 bitrate=N/A speed=19.2x    frame= 6685 fps=463 q=-0.0 size=N/A time=00:04:38.82 bitrate=N/A speed=19.3x    frame= 6944 fps=464 q=-0.0 size=N/A time=00:04:49.62 bitrate=N/A speed=19.4x    frame= 7174 fps=463 q=-0.0 size=N/A time=00:04:59.21 bitrate=N/A speed=19.3x    frame= 7428 fps=464 q=-0.0 size=N/A time=00:05:09.80 bitrate=N/A speed=19.4x    frame= 7715 fps=467 q=-0.0 size=N/A time=00:05:21.77 bitrate=N/A speed=19.5x    frame= 7990 fps=469 q=-0.0 size=N/A time=00:05:33.24 bitrate=N/A speed=19.6x    frame= 8249 fps=470 q=-0.0 size=N/A time=00:05:44.05 bitrate=N/A speed=19.6x    frame= 8498 fps=470 q=-0.0 size=N/A time=00:05:54.43 bitrate=N/A speed=19.6x    frame= 8736 fps=470 q=-0.0 size=N/A time=00:06:04.36 bitrate=N/A speed=19.6x    frame= 8999 fps=471 q=-0.0 size=N/A time=00:06:15.33 bitrate=N/A speed=19.6x    frame= 9250 fps=472 q=-0.0 size=N/A time=00:06:25.80 bitrate=N/A speed=19.7x    frame= 9520 fps=473 q=-0.0 size=N/A time=00:06:37.06 bitrate=N/A speed=19.7x    frame= 9803 fps=475 q=-0.0 size=N/A time=00:06:48.86 bitrate=N/A speed=19.8x    frame=10071 fps=476 q=-0.0 size=N/A time=00:07:00.04 bitrate=N/A speed=19.8x    frame=10318 fps=476 q=-0.0 size=N/A time=00:07:10.34 bitrate=N/A speed=19.9x    frame=10591 fps=477 q=-0.0 size=N/A time=00:07:21.73 bitrate=N/A speed=19.9x    frame=10839 fps=477 q=-0.0 size=N/A time=00:07:32.07 bitrate=N/A speed=19.9x    frame=11111 fps=479 q=-0.0 size=N/A time=00:07:43.42 bitrate=N/A speed=  20x    frame=11398 fps=480 q=-0.0 size=N/A time=00:07:55.39 bitrate=N/A speed=  20x    frame=11622 fps=479 q=-0.0 size=N/A time=00:08:04.73 bitrate=N/A speed=  20x    frame=11885 fps=480 q=-0.0 size=N/A time=00:08:15.70 bitrate=N/A speed=  20x    frame=12157 fps=481 q=-0.0 size=N/A time=00:08:27.04 bitrate=N/A speed=  20x    frame=12363 fps=479 q=-0.0 size=N/A time=00:08:35.64 bitrate=N/A speed=  20x    frame=12634 fps=480 q=-0.0 size=N/A time=00:08:46.94 bitrate=N/A speed=  20x    frame=12894 fps=480 q=-0.0 size=N/A time=00:08:57.78 bitrate=N/A speed=  20x    frame=13034 fps=477 q=-0.0 size=N/A time=00:09:03.62 bitrate=N/A speed=19.9x    frame=13273 fps=476 q=-0.0 size=N/A time=00:09:13.59 bitrate=N/A speed=19.9x    frame=13534 fps=477 q=-0.0 size=N/A time=00:09:24.48 bitrate=N/A speed=19.9x    frame=13788 fps=477 q=-0.0 size=N/A time=00:09:35.07 bitrate=N/A speed=19.9x    frame=14050 fps=478 q=-0.0 size=N/A time=00:09:46.00 bitrate=N/A speed=19.9x    frame=14284 fps=477 q=-0.0 size=N/A time=00:09:55.76 bitrate=N/A speed=19.9x    frame=14520 fps=477 q=-0.0 size=N/A time=00:10:05.60 bitrate=N/A speed=19.9x    frame=14726 fps=476 q=-0.0 size=N/A time=00:10:14.19 bitrate=N/A speed=19.8x    frame=14977 fps=476 q=-0.0 size=N/A time=00:10:24.66 bitrate=N/A speed=19.8x    frame=15235 fps=476 q=-0.0 size=N/A time=00:10:35.42 bitrate=N/A speed=19.9x    frame=15489 fps=476 q=-0.0 size=N/A time=00:10:46.02 bitrate=N/A speed=19.9x    frame=15760 fps=477 q=-0.0 size=N/A time=00:10:57.32 bitrate=N/A speed=19.9x    frame=15941 fps=475 q=-0.0 size=N/A time=00:11:04.87 bitrate=N/A speed=19.8x    frame=16127 fps=474 q=-0.0 size=N/A time=00:11:12.63 bitrate=N/A speed=19.8x    frame=16364 fps=473 q=-0.0 size=N/A time=00:11:22.51 bitrate=N/A speed=19.7x    frame=16641 fps=474 q=-0.0 size=N/A time=00:11:34.06 bitrate=N/A speed=19.8x    frame=16777 fps=471 q=-0.0 size=N/A time=00:11:39.74 bitrate=N/A speed=19.7x    frame=17010 fps=471 q=-0.0 size=N/A time=00:11:49.45 bitrate=N/A speed=19.6x    frame=17260 fps=471 q=-0.0 size=N/A time=00:11:59.88 bitrate=N/A speed=19.7x    frame=17514 fps=471 q=-0.0 size=N/A time=00:12:10.47 bitrate=N/A speed=19.7x    frame=17770 fps=472 q=-0.0 size=N/A time=00:12:21.15 bitrate=N/A speed=19.7x    frame=18010 fps=472 q=-0.0 size=N/A time=00:12:31.16 bitrate=N/A speed=19.7x    frame=18275 fps=472 q=-0.0 size=N/A time=00:12:42.21 bitrate=N/A speed=19.7x    frame=18537 fps=473 q=-0.0 size=N/A time=00:12:53.14 bitrate=N/A speed=19.7x    frame=18782 fps=473 q=-0.0 size=N/A time=00:13:03.36 bitrate=N/A speed=19.7x    frame=19048 fps=473 q=-0.0 size=N/A time=00:13:14.46 bitrate=N/A speed=19.7x    frame=19309 fps=474 q=-0.0 size=N/A time=00:13:25.34 bitrate=N/A speed=19.8x    frame=19566 fps=474 q=-0.0 size=N/A time=00:13:36.06 bitrate=N/A speed=19.8x    frame=19833 fps=475 q=-0.0 size=N/A time=00:13:47.20 bitrate=N/A speed=19.8x    frame=20083 fps=475 q=-0.0 size=N/A time=00:13:57.62 bitrate=N/A speed=19.8x    frame=20340 fps=475 q=-0.0 size=N/A time=00:14:08.34 bitrate=N/A speed=19.8x    frame=20567 fps=475 q=-0.0 size=N/A time=00:14:17.81 bitrate=N/A speed=19.8x    frame=20834 fps=475 q=-0.0 size=N/A time=00:14:28.95 bitrate=N/A speed=19.8x    frame=20996 fps=473 q=-0.0 size=N/A time=00:14:35.70 bitrate=N/A speed=19.7x    frame=21183 fps=472 q=-0.0 size=N/A time=00:14:43.50 bitrate=N/A speed=19.7x    frame=21386 fps=471 q=-0.0 size=N/A time=00:14:51.97 bitrate=N/A speed=19.7x    frame=21608 fps=471 q=-0.0 size=N/A time=00:15:01.23 bitrate=N/A speed=19.6x    frame=21866 fps=471 q=-0.0 size=N/A time=00:15:11.99 bitrate=N/A speed=19.6x    frame=22129 fps=471 q=-0.0 size=N/A time=00:15:22.96 bitrate=N/A speed=19.7x    frame=22368 fps=471 q=-0.0 size=N/A time=00:15:32.93 bitrate=N/A speed=19.7x    frame=22610 fps=471 q=-0.0 size=N/A time=00:15:43.02 bitrate=N/A speed=19.7x    frame=22815 fps=470 q=-0.0 size=N/A time=00:15:51.57 bitrate=N/A speed=19.6x    frame=23034 fps=470 q=-0.0 size=N/A time=00:16:00.70 bitrate=N/A speed=19.6x    frame=23314 fps=471 q=-0.0 size=N/A time=00:16:12.38 bitrate=N/A speed=19.6x    frame=23563 fps=471 q=-0.0 size=N/A time=00:16:22.77 bitrate=N/A speed=19.6x    frame=23774 fps=470 q=-0.0 size=N/A time=00:16:31.57 bitrate=N/A speed=19.6x    frame=23998 fps=470 q=-0.0 size=N/A time=00:16:40.91 bitrate=N/A speed=19.6x    frame=24246 fps=470 q=-0.0 size=N/A time=00:16:51.26 bitrate=N/A speed=19.6x    frame=24479 fps=470 q=-0.0 size=N/A time=00:17:00.97 bitrate=N/A speed=19.6x    frame=24750 fps=470 q=-0.0 size=N/A time=00:17:12.28 bitrate=N/A speed=19.6x    frame=24994 fps=470 q=-0.0 size=N/A time=00:17:22.45 bitrate=N/A speed=19.6x    frame=25216 fps=470 q=-0.0 size=N/A time=00:17:31.71 bitrate=N/A speed=19.6x    frame=25457 fps=470 q=-0.0 size=N/A time=00:17:41.76 bitrate=N/A speed=19.6x    frame=25664 fps=469 q=-0.0 size=N/A time=00:17:50.40 bitrate=N/A speed=19.6x    frame=25883 fps=469 q=-0.0 size=N/A time=00:17:59.53 bitrate=N/A speed=19.6x    frame=26133 fps=469 q=-0.0 size=N/A time=00:18:09.96 bitrate=N/A speed=19.6x    frame=26384 fps=469 q=-0.0 size=N/A time=00:18:20.43 bitrate=N/A speed=19.6x    frame=26650 fps=470 q=-0.0 size=N/A time=00:18:31.52 bitrate=N/A speed=19.6x    frame=26925 fps=470 q=-0.0 size=N/A time=00:18:42.99 bitrate=N/A speed=19.6x    frame=27207 fps=471 q=-0.0 size=N/A time=00:18:54.75 bitrate=N/A speed=19.6x    frame=27452 fps=471 q=-0.0 size=N/A time=00:19:04.97 bitrate=N/A speed=19.6x    frame=27706 fps=471 q=-0.0 size=N/A time=00:19:15.57 bitrate=N/A speed=19.6x    frame=27953 fps=471 q=-0.0 size=N/A time=00:19:25.87 bitrate=N/A speed=19.7x    frame=28233 fps=472 q=-0.0 size=N/A time=00:19:37.55 bitrate=N/A speed=19.7x    frame=28492 fps=472 q=-0.0 size=N/A time=00:19:48.35 bitrate=N/A speed=19.7x    frame=28692 fps=471 q=-0.0 size=N/A time=00:19:56.69 bitrate=N/A speed=19.7x    frame=28958 fps=472 q=-0.0 size=N/A time=00:20:07.78 bitrate=N/A speed=19.7x    frame=29195 fps=471 q=-0.0 size=N/A time=00:20:17.67 bitrate=N/A speed=19.7x    frame=29406 fps=471 q=-0.0 size=N/A time=00:20:26.47 bitrate=N/A speed=19.6x    frame=29650 fps=471 q=-0.0 size=N/A time=00:20:36.65 bitrate=N/A speed=19.6x    frame=29902 fps=471 q=-0.0 size=N/A time=00:20:47.16 bitrate=N/A speed=19.6x    frame=30140 fps=471 q=-0.0 size=N/A time=00:20:57.08 bitrate=N/A speed=19.6x    frame=30371 fps=471 q=-0.0 size=N/A time=00:21:06.72 bitrate=N/A speed=19.6x    frame=30600 fps=471 q=-0.0 size=N/A time=00:21:16.27 bitrate=N/A speed=19.6x    frame=30812 fps=470 q=-0.0 size=N/A time=00:21:25.11 bitrate=N/A speed=19.6x    frame=31070 fps=470 q=-0.0 size=N/A time=00:21:35.87 bitrate=N/A speed=19.6x    frame=31341 fps=471 q=-0.0 size=N/A time=00:21:47.18 bitrate=N/A speed=19.6x    frame=31608 fps=471 q=-0.0 size=N/A time=00:21:58.31 bitrate=N/A speed=19.7x    frame=31846 fps=471 q=-0.0 size=N/A time=00:22:08.24 bitrate=N/A speed=19.6x    frame=32029 fps=470 q=-0.0 size=N/A time=00:22:15.87 bitrate=N/A speed=19.6x    frame=32273 fps=470 q=-0.0 size=N/A time=00:22:26.05 bitrate=N/A speed=19.6x    frame=32497 fps=470 q=-0.0 size=N/A time=00:22:35.39 bitrate=N/A speed=19.6x    frame=32726 fps=470 q=-0.0 size=N/A time=00:22:44.94 bitrate=N/A speed=19.6x    frame=32962 fps=470 q=-0.0 size=N/A time=00:22:54.79 bitrate=N/A speed=19.6x    frame=33188 fps=469 q=-0.0 size=N/A time=00:23:04.21 bitrate=N/A speed=19.6x    frame=33397 fps=469 q=-0.0 size=N/A time=00:23:12.93 bitrate=N/A speed=19.6x    frame=33636 fps=469 q=-0.0 size=N/A time=00:23:22.90 bitrate=N/A speed=19.6x    frame=33856 fps=469 q=-0.0 size=N/A time=00:23:32.07 bitrate=N/A speed=19.5x    frame=34084 fps=468 q=-0.0 size=N/A time=00:23:41.58 bitrate=N/A speed=19.5x    frame=34299 fps=468 q=-0.0 size=N/A time=00:23:50.55 bitrate=N/A speed=19.5x    frame=34504 fps=468 q=-0.0 size=N/A time=00:23:59.10 bitrate=N/A speed=19.5x    frame=34738 fps=467 q=-0.0 size=N/A time=00:24:08.86 bitrate=N/A speed=19.5x    [Parsed_ssim_10 @ 000001e4bbc36980] SSIM Y:0.994142 (22.322711) U:0.993451 (21.838496) V:0.994107 (22.296806) All:0.994021 (22.233921)
[out#0/null @ 000001e4b99d4200] video:15038KiB audio:274052KiB subtitle:0KiB other streams:0KiB global headers:0KiB muxing overhead: unknown
frame=34998 fps=468 q=-0.0 Lsize=N/A time=00:24:19.70 bitrate=N/A speed=19.5x    
